<svg width="487" height="464" viewBox="0 0 487 464" fill="none" xmlns="http://www.w3.org/2000/svg">
<g clip-path="url(#clip0_6_2)">
<path d="M254.09 358.32C267.9 342.32 281.53 328.32 293.09 312.71C309.09 291.03 324.81 268.9 338.37 245.65C350.65 224.58 351.56 201.07 344.46 177.49C335.24 146.84 310.99 131.36 279.39 136.57C270.53 138.04 261.86 140.65 253.09 142.7C250.84 143.23 248.57 143.7 246.28 144.07C236.28 145.64 227.1 144.15 220.77 135.31C214.24 126.19 214.7 116.31 219.59 106.78C230.19 86 248.73 75.25 270.33 69.7C326.41 55.3 383.13 93.76 392.06 151.7C397.62 187.8 390.06 220.52 368.43 250.29C339.69 289.79 307.12 325.2 265.51 351.51C262.16 353.63 258.71 355.57 254.09 358.31" fill="#FFDB00"/>
<path d="M229.65 363C185.13 340.48 146.08 311.53 115.05 272.7C99 252.55 87 230.49 82.72 204.44C73.2 146.66 122 104 178 121.82C197.61 128.08 214.65 138.11 225.39 156.62C231.88 167.81 232.51 179.62 228.82 191.62C225.82 201.43 218.18 203.62 210.55 196.62C200.79 187.68 189.96 181.5 176.61 179.76C155.34 176.99 140.81 188.76 140.03 210.22C139.17 234.05 148.18 255.07 159.64 275.13C177.64 306.65 202.04 333.21 226.64 359.56C227.64 360.67 228.64 361.82 229.64 362.95" fill="#BD1823"/>
<path d="M243.29 358.24C250.9 340.53 259.2 322.59 266.29 304.17C269.73 295.17 270.15 284.95 265.15 276.39C262.02 271.02 256.69 265.39 251.08 263.31C237.61 258.26 226.63 269.08 229.35 283.6C230.11 287.6 232.35 291.51 232.35 295.47C232.35 299.12 231.42 304.47 228.98 305.99C226.35 307.64 219.8 307.2 217.92 305.06C212.63 299.06 207.49 292.2 204.79 284.77C201.531 275.591 201.456 265.583 204.578 256.357C207.7 247.13 213.837 239.224 222 233.91C238.61 223.35 263.35 224.38 276.7 237.18C291.91 251.75 293.29 270.31 288.7 289.5C281.84 318.23 263.94 339.82 243.23 358.24" fill="#6EC6DA"/>
<path d="M281 63.31C276.798 63.4014 272.619 62.6551 268.708 61.1146C264.797 59.5741 261.232 57.2702 258.221 54.3373C255.21 51.4044 252.813 47.9013 251.17 44.0323C249.527 40.1633 248.671 36.0059 248.652 31.8025C248.632 27.5992 249.45 23.4341 251.058 19.5502C252.665 15.6663 255.03 12.1413 258.014 9.18101C260.998 6.22068 264.542 3.88423 268.439 2.30794C272.335 0.731647 276.507 -0.0529186 280.71 7.54418e-06C289.174 0.0366944 297.281 3.41031 303.272 9.38842C309.263 15.3665 312.655 23.4666 312.71 31.93C312.71 48.93 298.26 63.29 281.03 63.31" fill="#FFDB00"/>
<path d="M144.08 111.17C127.93 111.17 115.47 98.94 115.54 83.05C115.537 75.4863 118.53 68.2293 123.863 62.8661C129.196 57.5028 136.436 54.4696 144 54.43C159.4 54.43 172.35 67 172.49 82.11C172.65 98.78 160.58 111.11 144.09 111.17" fill="#BD1823"/>
<path d="M243.8 200.06C244.03 188.79 253.24 179.61 263.87 180.06C275.4 180.53 283.78 189.16 283.65 200.4C283.565 205.723 281.417 210.806 277.658 214.576C273.899 218.346 268.823 220.51 263.5 220.61C252.76 220.61 243.58 211.08 243.8 200.08" fill="#6EC6DA"/>
<path d="M25.93 463.89C21.9901 463.978 18.0707 463.298 14.39 461.89C11.2677 460.67 8.48812 458.711 6.29001 456.18C4.09027 453.574 2.47708 450.525 1.56001 447.24C0.482059 443.466 -0.0433988 439.555 1.37105e-05 435.63C0.0182518 428.998 0.912658 422.398 2.66001 416C4.3282 409.639 7.03091 403.595 10.66 398.11C14.1264 392.845 18.7079 388.407 24.08 385.11C29.8156 381.686 36.402 379.953 43.08 380.11C45.5647 380.082 48.0444 380.341 50.47 380.88C52.4072 381.334 54.3115 381.919 56.17 382.63C57.5806 383.163 58.9233 383.861 60.17 384.71C61.17 385.44 61.94 385.98 62.37 386.33L56.37 398.64C54.4994 397.268 52.4506 396.158 50.28 395.34C47.4094 394.355 44.3833 393.901 41.35 394C37.3316 393.925 33.4129 395.255 30.27 397.76C27.0097 400.387 24.3184 403.65 22.36 407.35C20.1825 411.405 18.59 415.748 17.63 420.25C16.6102 424.78 16.0871 429.407 16.07 434.05C16.048 436.188 16.2898 438.321 16.79 440.4C17.2126 442.21 18.006 443.912 19.12 445.4C20.236 446.855 21.7108 447.996 23.4 448.71C25.4759 449.547 27.7026 449.946 29.94 449.88C33.33 449.969 36.7107 449.485 39.94 448.45C42.2358 447.668 44.4497 446.663 46.55 445.45L48.36 458.28C45.4656 459.936 42.3748 461.223 39.16 462.11C34.861 463.329 30.4081 463.918 25.94 463.86" fill="#3C3C3B"/>
<path d="M70.39 463.63C64.69 463.543 60.1967 461.49 56.91 457.47C53.6233 453.45 51.9867 447.593 52 439.9C51.9437 434.357 52.9625 428.855 55 423.7C56.8534 418.984 59.6312 414.686 63.17 411.06C66.6257 407.559 70.7465 404.785 75.29 402.9C79.9478 400.952 84.9514 399.965 90 400C93.6101 399.995 97.2127 400.329 100.76 401C104.52 401.732 108.203 402.817 111.76 404.24L103.76 437.29C103.425 438.809 103.168 440.345 102.99 441.89C102.813 443.42 102.726 444.96 102.73 446.5C102.723 448.958 102.96 451.41 103.44 453.82C103.915 456.211 104.543 458.569 105.32 460.88L91.32 463.22L90.67 461.92C90.41 461.4 90.15 460.84 89.89 460.24C89.63 459.63 89.42 459.09 89.24 458.62C89.06 458.15 88.94 457.77 88.86 457.52C86.662 459.077 84.3176 460.417 81.86 461.52C78.2523 463.032 74.3591 463.741 70.45 463.6M76.22 450C78.3657 450.075 80.4852 449.511 82.31 448.38C83.9231 447.328 85.3663 446.037 86.59 444.55C86.76 443.34 86.94 442.18 87.11 441.05C87.28 439.92 87.54 438.63 87.89 437.16L93.46 414.09C92.4779 413.826 91.4738 413.652 90.46 413.57C89.46 413.49 88.46 413.44 87.46 413.44C84.5926 413.396 81.7675 414.136 79.29 415.58C76.8582 417.022 74.7425 418.94 73.07 421.22C71.277 423.631 69.923 426.339 69.07 429.22C68.1608 432.246 67.7025 435.39 67.71 438.55C67.6672 440.424 67.8621 442.295 68.29 444.12C68.5844 445.397 69.1582 446.592 69.97 447.62C70.6741 448.458 71.5939 449.087 72.63 449.44C73.7619 449.797 74.9432 449.973 76.13 449.96" fill="#3C3C3B"/>
<path d="M162 417.09C160.104 416.426 158.148 415.948 156.16 415.66C153.413 415.287 150.642 415.117 147.87 415.15C145.55 415.155 143.232 415.305 140.93 415.6C138.704 415.866 136.512 416.366 134.39 417.09L123.67 462.2H107.67L121.28 405.29C125.533 403.596 129.941 402.316 134.44 401.47C138.817 400.595 143.267 400.14 147.73 400.11C151.693 400.06 155.656 400.278 159.59 400.76C162.451 401.149 165.286 401.71 168.08 402.44L162 417.09Z" fill="#3C3C3B"/>
<path d="M213.89 437.31C213.547 438.828 213.286 440.364 213.11 441.91C212.938 443.441 212.851 444.98 212.85 446.52C212.848 448.977 213.085 451.429 213.56 453.84C214.045 456.229 214.672 458.587 215.44 460.9L201.44 463.24C201.27 462.89 201.05 462.46 200.8 461.94C200.55 461.42 200.28 460.86 200.02 460.26C199.76 459.66 199.54 459.11 199.37 458.64L198.98 457.54C196.783 459.099 194.439 460.439 191.98 461.54C188.372 463.052 184.479 463.761 180.57 463.62C174.87 463.533 170.377 461.48 167.09 457.46C163.803 453.44 162.163 447.583 162.17 439.89C162.109 434.369 163.128 428.89 165.17 423.76C167.009 419.092 169.763 414.838 173.27 411.25C176.702 407.793 180.802 405.071 185.32 403.25C189.977 401.336 194.965 400.358 200 400.37C202.278 400.361 204.546 400.667 206.74 401.28L213 375L229.59 372.28L213.89 437.31ZM186.41 450C188.556 450.074 190.675 449.51 192.5 448.38C194.111 447.326 195.554 446.035 196.78 444.55C196.95 443.34 197.12 442.18 197.3 441.05C197.48 439.92 197.73 438.63 198.07 437.16L203.65 414.09C202.668 413.827 201.664 413.653 200.65 413.57C199.65 413.49 198.65 413.44 197.65 413.44C194.786 413.397 191.964 414.137 189.49 415.58C187.055 417.021 184.935 418.939 183.26 421.22C181.492 423.639 180.156 426.346 179.31 429.22C178.401 432.246 177.943 435.39 177.95 438.55C177.912 440.423 178.107 442.294 178.53 444.12C178.823 445.399 179.401 446.595 180.22 447.62C180.918 448.464 181.84 449.095 182.88 449.44C184.012 449.799 185.193 449.974 186.38 449.96" fill="#3C3C3B"/>
<path d="M218.16 462.2L237.61 381.96H283.11L280.91 391.03H246.04L239.94 416.05H270.67L268.46 425H237.74L228.93 462.2H218.16Z" fill="#3C3C3B"/>
<path d="M312.79 462.85C312.341 461.947 311.953 461.015 311.63 460.06C311.261 458.989 310.999 457.883 310.85 456.76C308.668 458.606 306.25 460.153 303.66 461.36C300.273 462.94 296.567 463.717 292.83 463.63C286.09 463.63 281.143 461.597 277.99 457.53C274.837 453.463 273.26 448.323 273.26 442.11C273.255 436.943 274.131 431.813 275.85 426.94C277.587 421.918 280.351 417.312 283.967 413.418C287.583 409.523 291.97 406.425 296.85 404.32C302.664 401.84 308.94 400.627 315.26 400.76C316.26 400.76 317.48 400.76 318.82 400.89C320.189 400.979 321.551 401.149 322.9 401.4C324.29 401.66 325.65 401.99 326.99 402.4C328.216 402.744 329.407 403.199 330.55 403.76L321.74 440C321.3 441.82 320.94 443.53 320.64 445.12C320.324 446.811 320.169 448.529 320.18 450.25C320.178 452.053 320.352 453.851 320.7 455.62C321.103 457.616 321.623 459.586 322.26 461.52L312.79 462.85ZM295.03 454.85C298.074 454.908 301.084 454.196 303.78 452.78C306.183 451.51 308.353 449.844 310.2 447.85C310.29 446.56 310.44 445.09 310.66 443.44C310.857 441.873 311.138 440.317 311.5 438.78L318.63 410.39C317.826 410.149 316.997 409.998 316.16 409.94C314.95 409.81 314 409.74 313.31 409.74C309.166 409.685 305.063 410.57 301.31 412.33C297.794 414.012 294.644 416.37 292.04 419.27C289.42 422.189 287.383 425.584 286.04 429.27C284.678 433.009 283.987 436.96 284 440.94C283.985 442.79 284.159 444.636 284.52 446.45C284.803 448 285.398 449.477 286.27 450.79C287.122 452.038 288.283 453.044 289.64 453.71C291.316 454.502 293.158 454.879 295.01 454.81M330.27 381.05L310.7 395.83L306.16 390.13L324.44 372.63L330.27 381.05Z" fill="#3C3C3B"/>
<path d="M328.35 440.68C328.326 435.509 329.224 430.376 331 425.52C332.716 420.766 335.361 416.402 338.78 412.68C342.312 408.883 346.592 405.86 351.35 403.8C356.778 401.508 362.629 400.383 368.52 400.5C371.648 400.469 374.773 400.706 377.86 401.21C380.434 401.659 382.955 402.376 385.38 403.35L381.38 412.42C379.681 411.643 377.926 410.995 376.13 410.48C373.355 409.79 370.498 409.484 367.64 409.57C363.686 409.505 359.766 410.3 356.15 411.9C352.534 413.501 349.31 415.869 346.7 418.84C344.237 421.656 342.324 424.909 341.06 428.43C339.768 432.026 339.111 435.819 339.12 439.64C339.108 441.548 339.37 443.447 339.9 445.28C340.431 447.077 341.412 448.708 342.75 450.02C344.35 451.528 346.282 452.638 348.39 453.26C351.313 454.106 354.348 454.497 357.39 454.42C360.973 454.411 364.54 453.934 368 453C369.55 452.57 370.91 452.13 372.08 451.7C373.02 451.385 373.914 450.948 374.74 450.4L375.64 459.48C373.248 460.757 370.7 461.715 368.06 462.33C363.927 463.357 359.678 463.838 355.42 463.76C346.427 463.76 339.667 461.6 335.14 457.28C330.613 452.96 328.343 447.427 328.33 440.68" fill="#3C3C3B"/>
<path d="M413.77 435.63C413.34 437.36 412.98 439 412.67 440.55C412.376 442.046 412.225 443.566 412.22 445.09C412.143 447.246 412.806 449.364 414.1 451.09C415.353 452.69 417.75 453.49 421.29 453.49C422.723 453.493 424.154 453.383 425.57 453.16C426.884 452.965 428.183 452.684 429.46 452.32L428.81 461.39C428.21 461.57 427.1 461.8 425.51 462.11C423.257 462.457 420.979 462.608 418.7 462.56C415.943 462.636 413.195 462.195 410.6 461.26C408.58 460.52 406.759 459.322 405.28 457.76C403.932 456.284 402.955 454.509 402.43 452.58C401.854 450.469 401.571 448.288 401.59 446.1C401.594 444.231 401.745 442.365 402.04 440.52C402.35 438.62 402.71 436.68 403.15 434.69L409 411H391.61L393.68 402.05H421.68L413.77 435.63ZM417 392.72C414.954 392.781 412.961 392.067 411.42 390.72C410.657 389.99 410.064 389.101 409.683 388.116C409.303 387.13 409.145 386.073 409.22 385.02C409.164 383.772 409.359 382.526 409.795 381.355C410.23 380.185 410.898 379.114 411.756 378.207C412.615 377.299 413.647 376.575 414.792 376.075C415.937 375.576 417.171 375.312 418.42 375.3C420.498 375.231 422.52 375.973 424.06 377.37C424.835 378.123 425.44 379.035 425.831 380.043C426.223 381.05 426.393 382.131 426.33 383.21C426.357 384.554 426.069 385.886 425.49 387.1C424.933 388.221 424.185 389.236 423.28 390.1C422.414 390.933 421.395 391.592 420.28 392.04C419.233 392.47 418.112 392.691 416.98 392.69" fill="#3C3C3B"/>
<path d="M469.91 382.09H452.54L454.74 373.02H482.74L467.18 437.7C466.747 439.433 466.413 441.1 466.18 442.7C465.931 444.177 465.8 445.672 465.79 447.17C465.79 449.677 466.393 451.537 467.6 452.75C468.807 453.963 471.053 454.567 474.34 454.56C476.594 454.557 478.83 454.165 480.95 453.4C482.694 452.803 484.387 452.064 486.01 451.19L486.79 460.27C484.908 461.213 482.93 461.951 480.89 462.47C477.783 463.299 474.575 463.693 471.36 463.64C465.66 463.64 461.533 462.407 458.98 459.94C456.427 457.473 455.153 453.78 455.16 448.86C455.232 444.787 455.796 440.738 456.84 436.8L469.91 382.09Z" fill="#3C3C3B"/>
</g>
<defs>
<clipPath id="clip0_6_2">
<rect width="486.76" height="463.89" fill="white"/>
</clipPath>
</defs>
</svg>
