<svg xmlns="http://www.w3.org/2000/svg" xmlns:xlink="http://www.w3.org/1999/xlink" viewBox="0 0 4308.45 939.03"><defs><style>.cls-1{fill:url(#Gradiente_sem_nome_24);}.cls-2{fill:#bd1823;}.cls-3{fill:#6ec6da;}.cls-4{fill:url(#Gradiente_sem_nome_24-2);}.cls-5{fill:#3c3c3b;}</style><radialGradient id="Gradiente_sem_nome_24" cx="577.69" cy="549.71" r="312.49" gradientUnits="userSpaceOnUse"><stop offset="0" stop-color="#ffed00"/><stop offset="1" stop-color="#ffdb00"/></radialGradient><radialGradient id="Gradiente_sem_nome_24-2" cx="515.88" cy="81.89" r="82.04" xlink:href="#Gradiente_sem_nome_24"/></defs><g id="Camada_2" data-name="Camada 2"><g id="Camada_1-2" data-name="Camada 1"><path class="cls-1" d="M446.42,927c35.71-41.41,71-77.69,100.79-118,41.48-56.07,82-113.31,117.12-173.48,31.77-54.5,34.12-115.31,15.76-176.31-23.87-79.29-86.59-119.34-168.32-105.85-22.93,3.78-45.37,10.54-68,15.84-5.83,1.37-11.69,2.62-17.6,3.54-26,4.06-49.64.23-66-22.64-16.9-23.61-15.69-49.11-3.06-73.82,27.54-53.85,75.49-81.56,131.37-95.91,145.09-37.25,291.8,62.24,314.91,212.13,14.39,93.39-5.1,178.05-61.13,255.07C667.86,749.7,583.59,841.29,476,909.37c-8.66,5.48-17.61,10.5-29.54,17.58"/><path class="cls-2" d="M383.17,939C268,880.76,167,805.88,86.73,705.42,45.11,653.33,14.19,596.25,3.09,528.87c-24.62-149.46,101.72-260,246.41-213.73,50.72,16.2,94.8,42.13,122.59,90,16.79,28.94,18.42,59.47,8.88,90.68-7.77,25.38-27.55,31-47.27,12.91-25.25-23.14-53.26-39.12-87.81-43.62-55-7.16-92.61,23.4-94.61,78.81-2.23,61.64,21.07,116,50.72,167.9,46.58,81.55,109.68,150.25,173.31,218.41,2.68,2.87,5.25,5.85,7.86,8.78"/><path class="cls-3" d="M418.48,926.75c19.68-45.82,41.14-92.23,59.43-139.87,8.9-23.18,10-49.73-2.94-71.88-8.11-13.89-21.88-28.4-36.4-33.84-34.85-13.06-63.26,14.94-56.2,52.49,1.95,10.4,7.77,20.45,7.88,30.71.09,9.44-2.39,23.28-8.71,27.22-6.81,4.26-23.77,3.12-28.63-2.41-13.66-15.55-27-33.27-34-52.48C301,687.4,321.26,632,363.51,605.1c42.95-27.31,107-24.64,141.51,8.46,39.34,37.71,42.91,85.7,31.07,135.35-17.73,74.34-64,130.17-117.61,177.84"/><path class="cls-4" d="M516.13,163.77c-45.15,0-81.7-35.52-82.44-80.23C432.94,38.11,469.92.25,515.28,0c45.13-.25,82.76,37.29,82.8,82.59,0,44.07-37.37,81.14-82,81.18"/><path class="cls-2" d="M161.82,287.6c-41.78.1-74-31.66-73.84-72.75.17-40.9,33.11-74,73.6-74,39.86,0,73.35,32.52,73.72,71.6.42,43.14-30.81,75.1-73.48,75.2"/><path class="cls-3" d="M419.8,517.53c.59-29.14,24.41-52.89,51.92-51.77,29.81,1.21,51.5,23.53,51.17,52.61-.33,28.52-23.93,52.18-52.14,52.28-27.78.09-51.52-24.66-50.95-53.12"/><path class="cls-5" d="M1139.9,784.59q-45.45,0-79.32-13.82t-55.71-39.22Q983,706.16,972.34,670.06t-10.7-79.77q0-66.85,18.27-135t54.82-123A296.6,296.6,0,0,1,1127,243.13q55.69-34.31,130.58-34.32,28.52,0,50.81,5.35a295.66,295.66,0,0,1,39.21,12q16.92,6.68,27.63,14.26t15.15,11.14l-41,84.67a175.31,175.31,0,0,0-41.9-22.73q-24.07-9.35-61.5-9.36-43.68,0-76.2,25.85t-54.38,66q-21.84,40.1-32.53,88.68a440.9,440.9,0,0,0-10.69,94.92,180,180,0,0,0,4.9,43.67,93.51,93.51,0,0,0,16,34.32,72.62,72.62,0,0,0,29.42,22.72q18.26,8,45,8,41,0,68.63-9.79T1281.61,658l12.48,88.25q-23.19,14.25-63.28,26.28t-90.91,12"/><path class="cls-5" d="M1445.61,782.8q-58.81-.9-92.69-42.33T1319,619.7q0-60.6,20.5-111.41t56.16-86.9A254.18,254.18,0,0,1,1479,365.24a258.23,258.23,0,0,1,101.16-20.06,395.07,395.07,0,0,1,74,7.13,422.24,422.24,0,0,1,75.76,22.28l-55.27,227.29a303.26,303.26,0,0,0-5.34,31.63,276,276,0,0,0-1.78,31.65,255.29,255.29,0,0,0,4.9,50.36,401.44,401.44,0,0,0,12.92,48.57l-96.26,16c-1.2-2.39-2.68-5.35-4.45-8.92s-3.57-7.42-5.36-11.58-3.27-7.87-4.45-11.15-2.09-5.79-2.67-7.57q-17.84,13.38-48.14,27.63t-78.43,14.25m40.11-93.58q24.94,0,41.89-11.14A131.37,131.37,0,0,0,1557,651.79q1.79-12.48,3.57-24.07t5.34-26.74l38.34-158.64a113.85,113.85,0,0,0-20.5-3.57q-10.71-.88-20.51-.89-31.2,0-56.15,14.71a143.5,143.5,0,0,0-42.78,38.76,177.79,177.79,0,0,0-27.19,55.26,222.23,222.23,0,0,0-9.35,64.18q0,23.19,4,38.32t11.58,24.07a40.24,40.24,0,0,0,18.27,12.47,75.58,75.58,0,0,0,24.07,3.57"/><path class="cls-5" d="M2075.76,462.83q-16.94-6.22-40.11-9.8t-57-3.57a379.14,379.14,0,0,0-47.68,3.12,223.07,223.07,0,0,0-45,10.25l-74,310.17H1702.31l93.58-391.27a486,486,0,0,1,90.47-26.3q48.57-9.36,91.36-9.36,49.89,0,81.55,4.46a498.27,498.27,0,0,1,58.38,11.59Z"/><path class="cls-5" d="M2432.27,601.88a305.92,305.92,0,0,0-5.34,31.63,276,276,0,0,0-1.78,31.65,255.29,255.29,0,0,0,4.9,50.36A399.65,399.65,0,0,0,2443,764.09l-96.27,16c-1.2-2.39-2.68-5.35-4.45-8.92s-3.57-7.42-5.35-11.58-3.28-7.87-4.46-11.15-2.09-5.79-2.67-7.57q-17.84,13.38-48.14,27.63t-78.43,14.25q-58.82-.9-92.69-42.33T2076.65,619.7q0-60.6,20.5-111t55.71-86a247.52,247.52,0,0,1,82.89-55.27,263.57,263.57,0,0,1,101.16-19.61,171.44,171.44,0,0,1,46.34,6.24L2426,173.16l114.08-18.71Zm-188.95,87.34q24.94,0,41.89-11.14a131.42,131.42,0,0,0,29.42-26.29q1.77-12.48,3.56-24.07t5.35-26.74l38.33-158.64a113.85,113.85,0,0,0-20.5-3.57q-10.71-.88-20.51-.89-31.2,0-56.15,14.71a143.5,143.5,0,0,0-42.78,38.76q-17.83,24.07-27.19,55.26a222.23,222.23,0,0,0-9.35,64.18q0,23.19,4,38.32T2201,673.18a40.14,40.14,0,0,0,18.27,12.47,75.51,75.51,0,0,0,24.06,3.57"/><polygon class="cls-5" points="2461.69 773 2595.39 221.29 2908.23 221.29 2893.08 283.68 2653.32 283.68 2611.42 455.7 2822.66 455.7 2807.52 517.2 2596.27 517.2 2535.67 773 2461.69 773"/><path class="cls-5" d="M3112.33,777.45a157.27,157.27,0,0,1-8-19.15,121.12,121.12,0,0,1-5.35-22.73q-17.84,16-49.46,31.63t-74.44,15.6q-69.51,0-102-41.88t-32.53-106.06a312.41,312.41,0,0,1,17.84-104.29,266.19,266.19,0,0,1,53.92-90.91q36.09-40.11,90.46-64.62t126.56-24.51c7.14,0,15.29.3,24.51.89a235.48,235.48,0,0,1,28.07,3.56q14.25,2.68,28.08,6.69a145.93,145.93,0,0,1,24.52,9.36l-60.61,249.56q-4.47,18.72-7.58,35.21a188.49,188.49,0,0,0-3.12,35.2,192.35,192.35,0,0,0,3.56,37,359.12,359.12,0,0,0,10.7,40.57Zm-122.11-55.24q33.87,0,60.16-14.27t44.12-33.87q.89-13.38,3.13-30.31a321.65,321.65,0,0,1,5.78-32.08l49-195.2q-4.47-1.77-16.94-3.11a193,193,0,0,0-19.6-1.34q-45.45,0-82.45,17.82a203,203,0,0,0-63.73,47.69,211,211,0,0,0-41,68.62,232.07,232.07,0,0,0-14.26,80.67,188.38,188.38,0,0,0,3.57,37.88q3.55,17.38,12,29.86a60.92,60.92,0,0,0,23.17,20q14.7,7.59,37,7.59m242.44-507.15-134.6,101.6-31.18-39.22,125.66-120.33Z"/><path class="cls-5" d="M3219.29,625.05a300.89,300.89,0,0,1,18.27-104.29A262.15,262.15,0,0,1,3291,432.53q35.21-38.31,86.45-61t118.1-22.73q36.55,0,64.18,4.9a256.13,256.13,0,0,1,51.7,14.7l-27.64,62.39a263.12,263.12,0,0,0-36.1-13.37q-20.94-6.22-58.38-6.23-45.45,0-82,17.38a189.7,189.7,0,0,0-61.94,46.34,204.74,204.74,0,0,0-38.77,66,224.89,224.89,0,0,0-13.36,77.09,137.44,137.44,0,0,0,5.34,38.78,75.5,75.5,0,0,0,19.6,32.53q14.25,14.26,38.77,22.28t62,8a269.72,269.72,0,0,0,38.33-2.67,272.87,272.87,0,0,0,34.75-7.13q16-4.46,28.08-8.92t18.27-8.91l6.24,62.4q-16,9.81-52.14,19.6t-86.9,9.81q-92.71,0-139.48-44.56t-46.8-114.09"/><path class="cls-5" d="M3806.65,590.29q-4.47,17.84-7.58,33.86a162.56,162.56,0,0,0-3.12,31.2q0,25,12.93,41.45t49.47,16.49a187.3,187.3,0,0,0,29.41-2.24,220.37,220.37,0,0,0,26.74-5.78l-4.45,62.38q-6.26,1.8-22.74,4.9t-46.79,3.12q-33,0-55.7-8.9t-36.55-24.07a87.05,87.05,0,0,1-19.6-35.65,162.64,162.64,0,0,1-5.81-44.57,243.93,243.93,0,0,1,3.12-38.33q3.14-19.59,7.59-40.1l40.1-163.11H3654.23l14.27-61.49H3861Zm22.28-295q-23.19,0-38.33-13.37t-15.15-39.22q0-31.19,19.61-49t43.67-17.82q23.17,0,38.78,14.26t15.59,40.1q0,15.17-5.79,26.75a73.83,73.83,0,0,1-15.15,20.5,64.11,64.11,0,0,1-20.5,13.36,60.61,60.61,0,0,1-22.73,4.46"/><path class="cls-5" d="M4192.59,222.18H4073.16l15.14-62.39h192.52L4173.87,604.55q-4.47,17.84-7.13,34.31a192.05,192.05,0,0,0-2.67,30.75q0,25.86,12.47,38.33t46.35,12.48a133.26,133.26,0,0,0,45.46-8q22.26-8,34.76-15.15l5.34,62.4q-12.49,7.14-40.55,15.15t-65.51,8q-58.83,0-85.12-25.4T4091,681.2q0-36.54,11.58-82.89Z"/></g></g></svg>