<svg width="428" height="926" viewBox="0 0 428 926" fill="none" xmlns="http://www.w3.org/2000/svg">
<path d="M122.439 987C170.65 931.075 218.16 882.056 258.385 827.632C314.341 751.905 369.041 674.592 416.361 593.324C459.217 519.716 462.393 437.587 437.627 355.206C405.43 248.11 320.829 194.022 210.582 212.241C179.653 217.351 149.364 226.471 118.792 233.639C110.931 235.486 103.018 237.165 95.0421 238.424C60.0259 243.902 28.091 238.718 6.01852 207.843C-16.7771 175.951 -15.1526 141.508 1.8891 108.147C39.0329 35.41 103.71 -2.04448 179.087 -21.3857C374.794 -71.7588 572.682 62.6745 603.851 265.111C623.262 391.244 596.965 505.58 521.399 609.601C421.13 747.612 307.456 871.32 162.276 963.262C150.59 970.66 138.527 977.44 122.449 987" fill="#FFDF05"/>
</svg>
