<svg width="34" height="34" viewBox="0 0 34 34" fill="none" xmlns="http://www.w3.org/2000/svg">
<path d="M10.8605 30.1337H4.93022C4.53702 30.1337 4.15992 29.9775 3.88189 29.6995C3.60386 29.4214 3.44766 29.0443 3.44766 28.6511V22.7209C3.44766 22.3277 3.29146 21.9506 3.01343 21.6726C2.7354 21.3946 2.3583 21.2384 1.9651 21.2384C1.5719 21.2384 1.19481 21.3946 0.916775 21.6726C0.638742 21.9506 0.482544 22.3277 0.482544 22.7209V28.6511C0.482544 29.8307 0.951137 30.962 1.78524 31.7961C2.61934 32.6302 3.75062 33.0988 4.93022 33.0988H10.8605C11.2536 33.0988 11.6307 32.9426 11.9088 32.6646C12.1868 32.3866 12.343 32.0095 12.343 31.6163C12.343 31.2231 12.1868 30.846 11.9088 30.5679C11.6307 30.2899 11.2536 30.1337 10.8605 30.1337ZM31.6163 21.2384C31.2231 21.2384 30.846 21.3946 30.5679 21.6726C30.2899 21.9506 30.1337 22.3277 30.1337 22.7209V28.6511C30.1337 29.0443 29.9775 29.4214 29.6995 29.6995C29.4214 29.9775 29.0443 30.1337 28.6511 30.1337H22.7209C22.3277 30.1337 21.9506 30.2899 21.6726 30.5679C21.3946 30.846 21.2384 31.2231 21.2384 31.6163C21.2384 32.0095 21.3946 32.3866 21.6726 32.6646C21.9506 32.9426 22.3277 33.0988 22.7209 33.0988H28.6511C29.8307 33.0988 30.962 32.6302 31.7961 31.7961C32.6302 30.962 33.0988 29.8307 33.0988 28.6511V22.7209C33.0988 22.3277 32.9426 21.9506 32.6646 21.6726C32.3866 21.3946 32.0095 21.2384 31.6163 21.2384ZM28.6511 0.482544H22.7209C22.3277 0.482544 21.9506 0.638742 21.6726 0.916775C21.3946 1.19481 21.2384 1.5719 21.2384 1.9651C21.2384 2.3583 21.3946 2.7354 21.6726 3.01343C21.9506 3.29146 22.3277 3.44766 22.7209 3.44766H28.6511C29.0443 3.44766 29.4214 3.60386 29.6995 3.88189C29.9775 4.15992 30.1337 4.53702 30.1337 4.93022V10.8605C30.1337 11.2536 30.2899 11.6307 30.5679 11.9088C30.846 12.1868 31.2231 12.343 31.6163 12.343C32.0095 12.343 32.3866 12.1868 32.6646 11.9088C32.9426 11.6307 33.0988 11.2536 33.0988 10.8605V4.93022C33.0988 3.75062 32.6302 2.61934 31.7961 1.78524C30.962 0.951137 29.8307 0.482544 28.6511 0.482544ZM1.9651 12.343C2.3583 12.343 2.7354 12.1868 3.01343 11.9088C3.29146 11.6307 3.44766 11.2536 3.44766 10.8605V4.93022C3.44766 4.53702 3.60386 4.15992 3.88189 3.88189C4.15992 3.60386 4.53702 3.44766 4.93022 3.44766H10.8605C11.2536 3.44766 11.6307 3.29146 11.9088 3.01343C12.1868 2.7354 12.343 2.3583 12.343 1.9651C12.343 1.5719 12.1868 1.19481 11.9088 0.916775C11.6307 0.638742 11.2536 0.482544 10.8605 0.482544H4.93022C3.75062 0.482544 2.61934 0.951137 1.78524 1.78524C0.951137 2.61934 0.482544 3.75062 0.482544 4.93022V10.8605C0.482544 11.2536 0.638742 11.6307 0.916775 11.9088C1.19481 12.1868 1.5719 12.343 1.9651 12.343ZM13.8256 6.41278H7.89533C7.50214 6.41278 7.12504 6.56897 6.84701 6.84701C6.56897 7.12504 6.41278 7.50214 6.41278 7.89533V13.8256C6.41278 14.2188 6.56897 14.5959 6.84701 14.8739C7.12504 15.1519 7.50214 15.3081 7.89533 15.3081H13.8256C14.2188 15.3081 14.5959 15.1519 14.8739 14.8739C15.1519 14.5959 15.3081 14.2188 15.3081 13.8256V7.89533C15.3081 7.50214 15.1519 7.12504 14.8739 6.84701C14.5959 6.56897 14.2188 6.41278 13.8256 6.41278ZM12.343 12.343H9.37789V9.37789H12.343V12.343ZM19.7558 15.3081H25.686C26.0792 15.3081 26.4563 15.1519 26.7344 14.8739C27.0124 14.5959 27.1686 14.2188 27.1686 13.8256V7.89533C27.1686 7.50214 27.0124 7.12504 26.7344 6.84701C26.4563 6.56897 26.0792 6.41278 25.686 6.41278H19.7558C19.3626 6.41278 18.9855 6.56897 18.7075 6.84701C18.4294 7.12504 18.2732 7.50214 18.2732 7.89533V13.8256C18.2732 14.2188 18.4294 14.5959 18.7075 14.8739C18.9855 15.1519 19.3626 15.3081 19.7558 15.3081ZM21.2384 9.37789H24.2035V12.343H21.2384V9.37789ZM13.8256 18.2732H7.89533C7.50214 18.2732 7.12504 18.4294 6.84701 18.7075C6.56897 18.9855 6.41278 19.3626 6.41278 19.7558V25.686C6.41278 26.0792 6.56897 26.4563 6.84701 26.7344C7.12504 27.0124 7.50214 27.1686 7.89533 27.1686H13.8256C14.2188 27.1686 14.5959 27.0124 14.8739 26.7344C15.1519 26.4563 15.3081 26.0792 15.3081 25.686V19.7558C15.3081 19.3626 15.1519 18.9855 14.8739 18.7075C14.5959 18.4294 14.2188 18.2732 13.8256 18.2732ZM12.343 24.2035H9.37789V21.2384H12.343V24.2035ZM19.7558 22.7209C20.149 22.7209 20.5261 22.5647 20.8041 22.2867C21.0822 22.0086 21.2384 21.6316 21.2384 21.2384C21.6316 21.2384 22.0086 21.0822 22.2867 20.8041C22.5647 20.5261 22.7209 20.149 22.7209 19.7558C22.7209 19.3626 22.5647 18.9855 22.2867 18.7075C22.0086 18.4294 21.6316 18.2732 21.2384 18.2732H19.7558C19.3626 18.2732 18.9855 18.4294 18.7075 18.7075C18.4294 18.9855 18.2732 19.3626 18.2732 19.7558V21.2384C18.2732 21.6316 18.4294 22.0086 18.7075 22.2867C18.9855 22.5647 19.3626 22.7209 19.7558 22.7209ZM25.686 18.2732C25.2928 18.2732 24.9157 18.4294 24.6377 18.7075C24.3597 18.9855 24.2035 19.3626 24.2035 19.7558V24.2035C23.8103 24.2035 23.4332 24.3597 23.1551 24.6377C22.8771 24.9157 22.7209 25.2928 22.7209 25.686C22.7209 26.0792 22.8771 26.4563 23.1551 26.7344C23.4332 27.0124 23.8103 27.1686 24.2035 27.1686H25.686C26.0792 27.1686 26.4563 27.0124 26.7344 26.7344C27.0124 26.4563 27.1686 26.0792 27.1686 25.686V19.7558C27.1686 19.3626 27.0124 18.9855 26.7344 18.7075C26.4563 18.4294 26.0792 18.2732 25.686 18.2732ZM19.7558 24.2035C19.4626 24.2035 19.1759 24.2904 18.9321 24.4533C18.6883 24.6162 18.4983 24.8478 18.3861 25.1187C18.2739 25.3896 18.2445 25.6877 18.3017 25.9753C18.3589 26.2629 18.5001 26.527 18.7075 26.7344C18.9148 26.9417 19.179 27.0829 19.4666 27.1401C19.7542 27.1973 20.0522 27.1679 20.3232 27.0557C20.5941 26.9435 20.8256 26.7535 20.9885 26.5097C21.1514 26.2659 21.2384 25.9793 21.2384 25.686C21.2384 25.2928 21.0822 24.9157 20.8041 24.6377C20.5261 24.3597 20.149 24.2035 19.7558 24.2035Z" fill="#212121"/>
</svg>
