<svg width="49" height="49" viewBox="0 0 49 49" fill="none" xmlns="http://www.w3.org/2000/svg">
<mask id="mask0_33_641" style="mask-type:alpha" maskUnits="userSpaceOnUse" x="0" y="0" width="49" height="49">
<rect width="49" height="49" fill="#D9D9D9"/>
</mask>
<g mask="url(#mask0_33_641)">
<path d="M11.5354 40.2208C10.7868 40.2208 10.1403 39.9486 9.59584 39.4042C9.0514 38.8597 8.77917 38.2132 8.77917 37.4646V11.5354C8.77917 10.7868 9.0514 10.1403 9.59584 9.59583C10.1403 9.05139 10.7868 8.77917 11.5354 8.77917H37.4646C38.2132 8.77917 38.8597 9.05139 39.4042 9.59583C39.9486 10.1403 40.2208 10.7868 40.2208 11.5354V37.4646C40.2208 38.2132 39.9486 38.8597 39.4042 39.4042C38.8597 39.9486 38.2132 40.2208 37.4646 40.2208H11.5354ZM21.8969 39.0979V25.0615H9.90209V37.4646C9.90209 37.941 10.0552 38.3323 10.3615 38.6385C10.6677 38.9448 11.059 39.0979 11.5354 39.0979H21.8969ZM23.0198 39.0979H37.4646C37.941 39.0979 38.3323 38.9448 38.6385 38.6385C38.9448 38.3323 39.0979 37.941 39.0979 37.4646V25.0615H23.0198V39.0979ZM9.90209 23.9385H39.0979V11.5354C39.0979 11.059 38.9448 10.6677 38.6385 10.3615C38.3323 10.0552 37.941 9.90208 37.4646 9.90208H11.5354C11.059 9.90208 10.6677 10.0552 10.3615 10.3615C10.0552 10.6677 9.90209 11.059 9.90209 11.5354V23.9385Z" fill="#202020"/>
</g>
</svg>
